HIERARCHY
ROOT Hips
{
  OFFSET 5.84602e-005 68.8428 3.50346
  CHANNELS 6 Xposition Yposition Zposition Zrotation Xrotation Yrotation
  JOINT Spine
  {
    OFFSET 0 8.597 -4.6522
    CHANNELS 3 Zrotation Xrotation Yrotation
    JOINT Spine1
    {
      OFFSET 0 7.8454 0.4098
      CHANNELS 3 Zrotation Xrotation Yrotation
      JOINT Spine2
      {
        OFFSET 0 9.7078 -2.1609
        CHANNELS 3 Zrotation Xrotation Yrotation
        JOINT Neck
        {
          OFFSET 0 21.8761 -0.4549
          CHANNELS 3 Zrotation Xrotation Yrotation
          JOINT Head
          {
            OFFSET 0 12.3537 3.3602
            CHANNELS 3 Zrotation Xrotation Yrotation
            End Site
            {
              OFFSET 0.0001 18.9506 0.5657
            }
          }
        }
        JOINT LeftShoulder
        {
          OFFSET 2.2086 21.1115 7.2329
          CHANNELS 3 Zrotation Xrotation Yrotation
          JOINT LeftArm
          {
            OFFSET 13.1193 3.0282 -4.8998
            CHANNELS 3 Zrotation Xrotation Yrotation
            JOINT LeftForeArm
            {
              OFFSET 27.4081 -0.0973053 -0.2375
              CHANNELS 3 Zrotation Xrotation Yrotation
              JOINT LeftHand
              {
                OFFSET 22.8641 0.0662994 -0.1369
                CHANNELS 3 Zrotation Xrotation Yrotation
                JOINT LeftHandIndex1
                {
                  OFFSET 8.8614 0.775009 2.4612
                  CHANNELS 3 Zrotation Xrotation Yrotation
                  JOINT LeftHandIndex2
                  {
                    OFFSET 3.3146 -0.808304 0.5841
                    CHANNELS 3 Zrotation Xrotation Yrotation
                    JOINT LeftHandIndex3
                    {
                      OFFSET 2.2628 -0.552002 0.3989
                      CHANNELS 3 Zrotation Xrotation Yrotation
                      End Site
                      {
                        OFFSET 1.6102 -0.4807 0.2612
                      }
                    }
                  }
                }
                JOINT LeftHandMiddle1
                {
                  OFFSET 8.9937 0.895004 0.2143
                  CHANNELS 3 Zrotation Xrotation Yrotation
                  JOINT LeftHandMiddle2
                  {
                    OFFSET 4.0984 0.0113983 -0.0242
                    CHANNELS 3 Zrotation Xrotation Yrotation
                    JOINT LeftHandMiddle3
                    {
                      OFFSET 2.2716 0.00689697 -0.0138001
                      CHANNELS 3 Zrotation Xrotation Yrotation
                      End Site
                      {
                        OFFSET 2.0404 -0.1441 0.0027
                      }
                    }
                  }
                }
                JOINT LeftHandRing1
                {
                  OFFSET 8.5234 0.597198 -2.0164
                  CHANNELS 3 Zrotation Xrotation Yrotation
                  JOINT LeftHandRing2
                  {
                    OFFSET 3.7188 -0.188293 -0.2328
                    CHANNELS 3 Zrotation Xrotation Yrotation
                    JOINT LeftHandRing3
                    {
                      OFFSET 2.1191 -0.106598 -0.1332
                      CHANNELS 3 Zrotation Xrotation Yrotation
                      End Site
                      {
                        OFFSET 1.8737 -0.2304 -0.0886
                      }
                    }
                  }
                }
                JOINT LeftHandPinky1
                {
                  OFFSET 7.9094 -0.601089 -3.4825
                  CHANNELS 3 Zrotation Xrotation Yrotation
                  JOINT LeftHandPinky2
                  {
                    OFFSET 2.2874 -0.477005 -0.6314
                    CHANNELS 3 Zrotation Xrotation Yrotation
                    JOINT LeftHandPinky3
                    {
                      OFFSET 1.6774 -0.349396 -0.4633
                      CHANNELS 3 Zrotation Xrotation Yrotation
                      End Site
                      {
                        OFFSET 1.4888 -0.4091 -0.3416
                      }
                    }
                  }
                }
                JOINT LeftHandThumb1
                {
                  OFFSET 1.833 -1.3875 1.3896
                  CHANNELS 3 Zrotation Xrotation Yrotation
                  JOINT LeftHandThumb2
                  {
                    OFFSET 3.4129 -1.121 2.5732
                    CHANNELS 3 Zrotation Xrotation Yrotation
                    JOINT LeftHandThumb3
                    {
                      OFFSET 2.2474 -0.804199 1.6192
                      CHANNELS 3 Zrotation Xrotation Yrotation
                      End Site
                      {
                        OFFSET 1.6527 -0.5689 1.1317
                      }
                    }
                  }
                }
              }
            }
          }
        }
        JOINT RightShoulder
        {
          OFFSET -2.2086 21.1115 7.2329
          CHANNELS 3 Zrotation Xrotation Yrotation
          JOINT RightArm
          {
            OFFSET -13.1216 3.0287 -4.9007
            CHANNELS 3 Zrotation Xrotation Yrotation
            JOINT RightForeArm
            {
              OFFSET -27.4081 -0.0973053 -0.2375
              CHANNELS 3 Zrotation Xrotation Yrotation
              JOINT RightHand
              {
                OFFSET -22.8641 0.0664063 -0.1369
                CHANNELS 3 Zrotation Xrotation Yrotation
                JOINT RightHandIndex1
                {
                  OFFSET -8.8614 0.774994 2.4612
                  CHANNELS 3 Zrotation Xrotation Yrotation
                  JOINT RightHandIndex2
                  {
                    OFFSET -3.3146 -0.808304 0.5841
                    CHANNELS 3 Zrotation Xrotation Yrotation
                    JOINT RightHandIndex3
                    {
                      OFFSET -2.2628 -0.552002 0.3989
                      CHANNELS 3 Zrotation Xrotation Yrotation
                      End Site
                      {
                        OFFSET -1.6102 -0.4807 0.2612
                      }
                    }
                  }
                }
                JOINT RightHandMiddle1
                {
                  OFFSET -8.9937 0.894989 0.2143
                  CHANNELS 3 Zrotation Xrotation Yrotation
                  JOINT RightHandMiddle2
                  {
                    OFFSET -4.0984 0.0113983 -0.0242
                    CHANNELS 3 Zrotation Xrotation Yrotation
                    JOINT RightHandMiddle3
                    {
                      OFFSET -2.2716 0.00691223 -0.0138001
                      CHANNELS 3 Zrotation Xrotation Yrotation
                      End Site
                      {
                        OFFSET -2.0404 -0.1441 0.0027
                      }
                    }
                  }
                }
                JOINT RightHandRing1
                {
                  OFFSET -8.5234 0.597198 -2.0164
                  CHANNELS 3 Zrotation Xrotation Yrotation
                  JOINT RightHandRing2
                  {
                    OFFSET -3.7188 -0.188309 -0.2328
                    CHANNELS 3 Zrotation Xrotation Yrotation
                    JOINT RightHandRing3
                    {
                      OFFSET -2.1191 -0.106598 -0.1332
                      CHANNELS 3 Zrotation Xrotation Yrotation
                      End Site
                      {
                        OFFSET -1.8737 -0.2304 -0.0886
                      }
                    }
                  }
                }
                JOINT RightHandPinky1
                {
                  OFFSET -7.9094 -0.601105 -3.4825
                  CHANNELS 3 Zrotation Xrotation Yrotation
                  JOINT RightHandPinky2
                  {
                    OFFSET -2.2874 -0.477005 -0.6314
                    CHANNELS 3 Zrotation Xrotation Yrotation
                    JOINT RightHandPinky3
                    {
                      OFFSET -1.6774 -0.349396 -0.4633
                      CHANNELS 3 Zrotation Xrotation Yrotation
                      End Site
                      {
                        OFFSET -1.4888 -0.4091 -0.3416
                      }
                    }
                  }
                }
                JOINT RightHandThumb1
                {
                  OFFSET -1.833 -1.38751 1.3896
                  CHANNELS 3 Zrotation Xrotation Yrotation
                  JOINT RightHandThumb2
                  {
                    OFFSET -3.41299 -1.12099 2.5732
                    CHANNELS 3 Zrotation Xrotation Yrotation
                    JOINT RightHandThumb3
                    {
                      OFFSET -2.24741 -0.804108 1.6192
                      CHANNELS 3 Zrotation Xrotation Yrotation
                      End Site
                      {
                        OFFSET -1.6527 -0.5689 1.1317
                      }
                    }
                  }
                }
              }
            }
          }
        }
      }
    }
  }
  JOINT RightUpLeg
  {
    OFFSET -9.1966 3.8861 -0.7581
    CHANNELS 3 Zrotation Xrotation Yrotation
    JOINT RightLeg
    {
      OFFSET -0.7359 -41.0265 0
      CHANNELS 3 Zrotation Xrotation Yrotation
      JOINT RightFoot
      {
        OFFSET 0 -40.2855 0
        CHANNELS 3 Zrotation Xrotation Yrotation
        JOINT RightToeBase
        {
          OFFSET 0 -5.6122 11.7359
          CHANNELS 3 Zrotation Xrotation Yrotation
          End Site
          {
            OFFSET 0 0 7.8731
          }
        }
      }
    }
  }
  JOINT LeftUpLeg
  {
    OFFSET 9.1965 3.8864 -0.7581
    CHANNELS 3 Zrotation Xrotation Yrotation
    JOINT LeftLeg
    {
      OFFSET 0.7359 -41.0268 0
      CHANNELS 3 Zrotation Xrotation Yrotation
      JOINT LeftFoot
      {
        OFFSET 0 -40.2855 0
        CHANNELS 3 Zrotation Xrotation Yrotation
        JOINT LeftToeBase
        {
          OFFSET 0 -5.6122 11.7359
          CHANNELS 3 Zrotation Xrotation Yrotation
          End Site
          {
            OFFSET 0 0 7.8731
          }
        }
      }
    }
  }
}
MOTION
Frames:	5
Frame Time:	0.0333333
-0.924372 3.30646 8.30556 -0 -87.8575 -0 0.569614 -1.38082 -0.46594 1.12847 -2.76615 -0.918524 1.12847 -2.76615 -0.918525 19.4593 1.78045 0.369886 9.36943 -2.98828 0.847607 -25.2256 0.447591 -18.1606 -54.5902 -6.8879 -16.1868 5.94526 4.17758 -22.3731 -50.5222 9.428 0.305264 5.17447e-007 9.00308e-007 3.06582e-006 2.69157e-008 6.32601e-007 -3.51597e-006 5.17447e-007 9.00308e-007 3.06582e-006 5.17447e-007 9.00308e-007 3.06582e-006 -0.0145639 -8.97193e-005 -6.17031e-006 1.07808e-006 5.51273e-007 4.42227e-006 5.17447e-007 9.00308e-007 3.06582e-006 -0.0187685 -0.00117662 4.76779e-005 1.07763e-006 5.50983e-007 4.42228e-006 5.17447e-007 9.00308e-007 3.06582e-006 -0.0122948 -0.003256 0.000673558 5.17657e-007 9.00007e-007 3.06589e-006 5.17447e-007 9.00308e-007 3.06582e-006 2.69157e-008 6.32601e-007 -3.51597e-006 5.17447e-007 9.00308e-007 3.06582e-006 18.3939 -18.5762 -5.81924 59.4251 -4.35916 11.9116 17.5453 29.309 74.974 27.6585 0.352719 -0.783731 6.90308e-007 9.17943e-007 -3.96085e-007 -1.33318e-007 -3.50307e-007 7.65591e-007 -4.23672e-007 -2.17329e-007 -1.1351e-006 6.90308e-007 9.17943e-007 -3.96085e-007 0.015002 -9.06855e-005 -1.07531e-006 1.33324e-007 3.50207e-007 -7.65637e-007 6.90308e-007 9.17943e-007 -3.96085e-007 0.0190154 -0.00119485 -6.00818e-005 1.33318e-007 3.50179e-007 -7.65651e-007 6.90308e-007 9.17943e-007 -3.96085e-007 0.0122745 -0.00324968 -0.00067577 1.333e-007 3.50224e-007 -7.65633e-007 6.90308e-007 9.17943e-007 -3.96085e-007 -1.33318e-007 -3.50307e-007 7.65591e-007 -4.23672e-007 -2.17329e-007 -1.1351e-006 -0.774811 -7.99136 11.1628 12.7453 30.9193 -25.2728 4.6642 20.3395 -6.71839 3.86029e-007 3.38093e-006 1.12055e-006 2.65965 -10.1189 -5.03574 -14.3532 36.2237 26.9001 6.15791 21.1317 -2.41597 -8.02743e-007 6.99503e-008 2.73734e-007 
-0.924433 3.22658 8.31373 -0 -87.7071 -0 0.56981 -1.4692 -0.461017 1.12833 -2.94287 -0.907839 1.12833 -2.94287 -0.907838 19.5406 1.63748 0.367344 9.45723 -3.08956 0.85189 -25.2801 0.636169 -18.0624 -54.5902 -6.88788 -16.1867 5.94525 4.17759 -22.3731 -50.5222 9.428 0.305262 3.97569e-015 7.95139e-016 6.36111e-015 -5.43292e-007 -1.53323e-006 4.50752e-007 3.18055e-015 5.56597e-015 3.18055e-015 3.97569e-015 7.95139e-016 6.36111e-015 -0.0145675 -8.88679e-005 4.85675e-006 3.97569e-015 -1.59028e-015 -3.18055e-015 3.97569e-015 7.95139e-016 6.36111e-015 -0.0187082 -0.0011744 5.47958e-005 -6.9432e-007 2.21962e-006 -1.27841e-006 3.97569e-015 7.95139e-016 6.36111e-015 -0.0123538 -0.00326931 0.00068582 1.19271e-014 4.77083e-015 -3.18055e-015 3.97569e-015 7.95139e-016 6.36111e-015 -5.43292e-007 -1.53323e-006 4.50752e-007 3.18055e-015 5.56597e-015 3.18055e-015 18.4269 -18.355 -5.90752 59.4251 -4.35917 11.9116 17.5453 29.309 74.974 27.6585 0.352715 -0.78373 -2.60275e-006 -7.70707e-007 -8.53261e-007 -5.56863e-007 -5.65603e-007 -3.81218e-007 -1.98785e-015 4.77083e-015 1.59028e-015 -2.60275e-006 -7.70707e-007 -8.53261e-007 0.0150184 -9.00007e-005 8.79353e-007 -1.19271e-015 1.59028e-015 -0 -2.60275e-006 -7.70707e-007 -8.53261e-007 0.0190437 -0.00119342 -6.00127e-005 3.97569e-015 -1.59028e-015 3.18055e-015 -2.60275e-006 -7.70707e-007 -8.53261e-007 0.0122946 -0.00325099 -0.000676602 1.98785e-015 3.18055e-015 3.18055e-015 -2.60275e-006 -7.70707e-007 -8.53261e-007 -5.56863e-007 -5.65603e-007 -3.81218e-007 -1.98785e-015 4.77083e-015 1.59028e-015 -0.974365 -8.21383 10.4486 12.7486 30.9255 -25.291 4.17667 20.4021 -5.91811 8.56204e-008 3.26599e-006 3.33072e-007 2.84896 -10.3189 -4.46567 -14.3548 36.2265 26.9116 6.57165 21.0737 -3.02237 1.08171e-006 3.14056e-006 -4.39356e-010 
-0.924489 3.14669 8.32186 -0 -87.5567 -0 0.570038 -1.55762 -0.4561 1.12828 -3.11967 -0.897167 1.12828 -3.11966 -0.897167 19.6218 1.49461 0.364961 9.54503 -3.19084 0.856251 -25.3352 0.824888 -17.9638 -54.5902 -6.88789 -16.1867 5.94526 4.17758 -22.3731 -50.5222 9.428 0.305275 -3.09618e-006 2.96109e-006 -1.27065e-006 -5.35804e-006 -6.65706e-007 -2.93615e-006 5.4222e-007 1.53356e-006 -4.51347e-007 -3.09618e-006 2.96109e-006 -1.27065e-006 -0.0145961 -9.23698e-005 1.53785e-006 5.42187e-007 1.53361e-006 -4.51152e-007 -3.09618e-006 2.96109e-006 -1.27065e-006 -0.0187327 -0.00117383 5.91349e-005 5.96292e-007 2.87964e-007 -2.18451e-006 -3.09618e-006 2.96109e-006 -1.27065e-006 -0.0122807 -0.00324825 0.000669972 5.42189e-007 1.53359e-006 -4.51197e-007 -3.09618e-006 2.96109e-006 -1.27065e-006 -5.35804e-006 -6.65706e-007 -2.93615e-006 5.4222e-007 1.53356e-006 -4.51347e-007 18.4601 -18.1335 -5.99582 59.4251 -4.35917 11.9116 17.5453 29.309 74.974 27.6585 0.352716 -0.783733 -5.56792e-007 -5.63554e-007 -3.92931e-007 -3.18074e-008 -1.35596e-006 -1.08306e-006 -2.60393e-006 -7.70177e-007 -8.42132e-007 -5.56792e-007 -5.63554e-007 -3.92931e-007 0.0149829 -9.32272e-005 1.06535e-006 7.95139e-015 6.36111e-015 -3.18055e-015 -5.56792e-007 -5.63554e-007 -3.92931e-007 0.018974 -0.00119025 -6.19012e-005 8.74653e-015 0 -3.18055e-015 -5.56792e-007 -5.63554e-007 -3.92931e-007 0.0122846 -0.003252 -0.000677179 5.1684e-015 0 4.77083e-015 -5.56792e-007 -5.63554e-007 -3.92931e-007 -3.18074e-008 -1.35596e-006 -1.08306e-006 -2.60393e-006 -7.70177e-007 -8.42132e-007 -1.17676 -8.43356 9.73339 12.7518 30.9313 -25.309 3.68813 20.4585 -5.11725 -8.78048e-008 -3.26502e-006 -3.33886e-007 3.04035 -10.517 -3.8946 -14.3563 36.2292 26.9229 6.98451 21.0116 -3.62787 7.95139e-016 9.54166e-015 1.59028e-015 
-0.924537 3.06677 8.32993 -0 -87.4063 -0 0.570252 -1.64595 -0.451156 1.12822 -3.29626 -0.886443 1.12821 -3.29625 -0.886443 19.7029 1.35164 0.36262 9.63285 -3.29207 0.860802 -25.3904 1.01324 -17.8653 -54.5902 -6.88789 -16.1867 5.94524 4.17759 -22.3731 -50.5222 9.428 0.305264 -5.75712e-007 3.40407e-007 -1.32267e-006 3.97569e-015 7.15625e-015 3.18055e-015 5.75712e-007 -3.40407e-007 1.32267e-006 -5.75712e-007 3.40407e-007 -1.32267e-006 -0.0145769 -8.44884e-005 -1.1833e-006 1.59028e-015 7.95139e-016 6.36111e-015 -5.75712e-007 3.40407e-007 -1.32267e-006 -0.0187486 -0.00117557 5.70569e-005 7.95139e-016 0 -3.18055e-015 -5.75712e-007 3.40407e-007 -1.32267e-006 -0.0122511 -0.00324592 0.00067489 5.74196e-007 -3.40963e-007 1.3227e-006 -5.75712e-007 3.40407e-007 -1.32267e-006 3.97569e-015 7.15625e-015 3.18055e-015 5.75712e-007 -3.40407e-007 1.32267e-006 18.4938 -17.9125 -6.08413 59.425 -4.35916 11.9116 17.5453 29.309 74.974 27.6585 0.352722 -0.783731 -2.3378e-007 -1.88103e-006 6.53494e-008 2.3378e-007 1.88103e-006 -6.53494e-008 -2.3378e-007 -1.88103e-006 6.53494e-008 -2.3378e-007 -1.88103e-006 6.53494e-008 0.0149406 -8.98068e-005 8.15063e-007 -2.33752e-007 -1.88103e-006 6.55948e-008 -2.3378e-007 -1.88103e-006 6.53494e-008 0.0190204 -0.0011897 -5.81516e-005 -2.83646e-006 -2.65099e-006 -7.65197e-007 -2.3378e-007 -1.88103e-006 6.53494e-008 0.0122589 -0.00324222 -0.000676695 -2.33744e-007 -1.88103e-006 6.5556e-008 -2.3378e-007 -1.88103e-006 6.53494e-008 2.3378e-007 1.88103e-006 -6.53494e-008 -2.3378e-007 -1.88103e-006 6.53494e-008 -1.38196 -8.65058 9.01714 12.7547 30.9367 -25.3268 3.19873 20.5086 -4.316 6.0914e-007 2.26476e-007 1.57539e-006 3.23378 -10.713 -3.32256 -14.3576 36.2316 26.9341 7.3964 20.9456 -4.2324 1.35561e-006 3.07147e-006 7.9926e-007 
-0.924581 2.98684 8.33796 -0 -87.2559 -0 0.570489 -1.73427 -0.446207 1.12822 -3.4728 -0.875712 1.12822 -3.47278 -0.875712 19.784 1.20864 0.360559 9.72072 -3.39335 0.86552 -25.446 1.20157 -17.7665 -54.5902 -6.88791 -16.1867 5.94526 4.17758 -22.3731 -50.5222 9.42801 0.305277 -1.8101e-006 1.02352e-006 -2.16031e-006 -3.06841e-006 1.08016e-006 5.11758e-007 -1.8101e-006 1.02352e-006 -2.16031e-006 -1.8101e-006 1.02352e-006 -2.16031e-006 -0.0146182 -8.77412e-005 1.46395e-006 -1.80931e-006 1.0238e-006 -2.16018e-006 -1.8101e-006 1.02352e-006 -2.16031e-006 -0.0187076 -0.00117284 5.76133e-005 -1.80912e-006 1.02393e-006 -2.16013e-006 -1.8101e-006 1.02352e-006 -2.16031e-006 -0.0122827 -0.00324685 0.000671567 -1.80949e-006 1.02393e-006 -2.16019e-006 -1.8101e-006 1.02352e-006 -2.16031e-006 -3.06841e-006 1.08016e-006 5.11758e-007 -1.8101e-006 1.02352e-006 -2.16031e-006 18.5277 -17.6914 -6.17247 59.425 -4.35916 11.9116 17.5453 29.309 74.974 27.6585 0.352722 -0.783729 3.97569e-015 4.77083e-015 1.59028e-015 3.18055e-015 1.59028e-015 -1.59028e-015 2.78299e-015 1.59028e-015 -1.59028e-015 3.97569e-015 4.77083e-015 1.59028e-015 0.0149971 -9.42502e-005 -1.43334e-006 -2.6043e-006 -7.69321e-007 -8.19779e-007 3.97569e-015 4.77083e-015 1.59028e-015 0.019003 -0.00119116 -6.05941e-005 5.96354e-015 3.18055e-014 1.59028e-015 3.97569e-015 4.77083e-015 1.59028e-015 0.0123054 -0.00325649 -0.000678415 9.93923e-015 1.59028e-015 4.77083e-015 3.97569e-015 4.77083e-015 1.59028e-015 3.18055e-015 1.59028e-015 -1.59028e-015 2.78299e-015 1.59028e-015 -1.59028e-015 -1.58989 -8.86467 8.29992 12.7574 30.9416 -25.3444 2.70865 20.5525 -3.51449 7.27833e-008 5.10298e-006 1.03013e-006 3.42926 -10.907 -2.74959 -14.3589 36.2339 26.9452 7.80723 20.8756 -4.83587 1.05233e-006 -2.93183e-009 -2.15608e-006 
